<svg width="33" height="33" viewBox="0 0 33 33" fill="none" xmlns="http://www.w3.org/2000/svg">
<g clip-path="url(#clip0_113_504)">
<path d="M37.7231 51.7275C46.0271 51.7275 52.7588 44.9958 52.7588 36.6919C52.7588 28.3879 46.0271 21.6562 37.7231 21.6562C29.4192 21.6562 22.6875 28.3879 22.6875 36.6919C22.6875 44.9958 29.4192 51.7275 37.7231 51.7275Z" fill="#FFEB3B"/>
<path d="M8.65219 15.2419C11.1525 15.2419 13.1794 13.215 13.1794 10.7147C13.1794 8.21439 11.1525 6.1875 8.65219 6.1875C6.15189 6.1875 4.125 8.21439 4.125 10.7147C4.125 13.215 6.15189 15.2419 8.65219 15.2419Z" fill="#FFEB3B"/>
<path d="M15.4688 2.0625C6.93 2.0625 0 8.9925 0 17.5313C0 26.07 6.93 33 15.4688 33C24.0075 33 30.9375 26.07 30.9375 17.5313C30.9375 8.9925 24.0075 2.0625 15.4688 2.0625ZM15.4688 30.9375C8.07469 30.9375 2.0625 24.9253 2.0625 17.5313C2.0625 10.1372 8.07469 4.125 15.4688 4.125C22.8628 4.125 28.875 10.1372 28.875 17.5313C28.875 24.9253 22.8628 30.9375 15.4688 30.9375Z" fill="black"/>
<path d="M20.625 14.4375V13.4062C20.625 11.7872 19.7381 8.84812 16.5 8.34281V6.1875H14.4375V8.35313C12.6225 8.70375 10.3125 10.0237 10.3125 13.4062C10.3125 15.8812 12.3956 17.1291 14.4375 18.1603V24.584C13.5197 24.3158 12.375 23.594 12.375 21.6552V20.624H10.3125V21.6552C10.3125 25.0377 12.6225 26.3577 14.4375 26.7083V28.875H16.5V26.7094C18.315 26.3577 20.625 25.0387 20.625 21.6562C20.625 19.1812 18.5419 17.9334 16.5 16.9022V10.4466C18.4078 10.9725 18.5522 12.9422 18.5625 13.4062V14.4375H20.625ZM14.4375 15.8297C13.1278 15.0872 12.375 14.4066 12.375 13.4062C12.375 11.4675 13.5197 10.7456 14.4375 10.4775V15.8297ZM18.5625 21.6562C18.5625 23.595 17.4178 24.3169 16.5 24.585V19.2328C17.8097 19.9753 18.5625 20.6559 18.5625 21.6562Z" fill="black"/>
</g>
<defs>
<clipPath id="clip0_113_504">
<rect width="33" height="33" fill="white"/>
</clipPath>
</defs>
</svg>
