<svg width="40" height="39" viewBox="0 0 40 39" fill="none" xmlns="http://www.w3.org/2000/svg">
<path d="M36.8002 39.0002H40.0002" stroke="black" stroke-width="2" stroke-miterlimit="10" stroke-linecap="round" stroke-linejoin="round"/>
<path d="M0 3.12003V0H3.20003" stroke="black" stroke-width="2" stroke-miterlimit="10" stroke-linecap="round" stroke-linejoin="round"/>
<path d="M40.0002 0V3.12003" stroke="black" stroke-width="2" stroke-miterlimit="10" stroke-linecap="round" stroke-linejoin="round"/>
<path d="M40.0002 0H36.8002" stroke="black" stroke-width="2" stroke-miterlimit="10" stroke-linecap="round" stroke-linejoin="round"/>
<path d="M40.0002 35.8802V39.0002" stroke="black" stroke-width="2" stroke-miterlimit="10" stroke-linecap="round" stroke-linejoin="round"/>
<path d="M0 39.0002V35.8802" stroke="black" stroke-width="2" stroke-miterlimit="10" stroke-linecap="round" stroke-linejoin="round"/>
<path d="M0 39.0002H3.20003" stroke="black" stroke-width="2" stroke-miterlimit="10" stroke-linecap="round" stroke-linejoin="round"/>
<path d="M20.001 32.697C12.5258 32.697 6.46706 26.7899 6.46706 19.5031C6.46706 12.2163 12.5256 6.30923 20.001 6.30923C27.4729 6.30923 33.5317 12.2163 33.5317 19.5031C33.5317 26.7899 27.4727 32.697 20.001 32.697ZM39.4975 21.0631V17.9523L35.9108 16.8406C35.7432 15.8814 35.4893 14.9504 35.1524 14.0568L37.6867 11.3475L36.0914 8.65402L32.4152 9.44173C31.7843 8.70061 31.0867 8.02187 30.3297 7.40531L31.136 3.81805L28.3734 2.26115L25.5963 4.73362C24.6813 4.4036 23.7295 4.1543 22.7442 3.98939L21.604 0.489075H18.4135L17.2736 3.98627C16.2897 4.151 15.3332 4.39718 14.418 4.7272L11.6395 2.25473L8.87687 3.80869L9.68327 7.39284C8.92484 8.00939 8.22531 8.68832 7.59444 9.42944L3.91671 8.64155L2.32158 11.3351L4.85275 14.0412C4.51408 14.9319 4.25857 15.866 4.08924 16.825L0.502563 17.9367V21.0476L4.08585 22.1561C4.25368 23.1183 4.50749 24.0524 4.84428 24.9463L2.3133 27.6523L3.90862 30.346L7.57826 29.5614C8.20913 30.3025 8.91017 30.9846 9.66859 31.6011L8.86388 35.1822L11.6267 36.7391L14.3971 34.2728C15.3155 34.6028 16.272 34.8518 17.2589 35.0171L18.3976 38.5109H21.5882L22.725 35.0204C23.7137 34.8553 24.6687 34.6094 25.5852 34.2791L28.3591 36.7455L31.1219 35.1915L30.317 31.6105C31.0773 30.997 31.7766 30.3119 32.409 29.5739L36.0833 30.3585L37.6786 27.6648L35.1475 24.9619C35.486 24.068 35.7416 23.1337 35.9093 22.1748L39.4975 21.0631Z" fill="black"/>
<path d="M19.7238 20.7977L18.3981 20.8443C17.0005 20.8327 16.0927 21.9312 16.0927 21.9312C15.2787 23.1693 13.753 23.4958 13.753 23.4958C10.0249 24.0331 9.74925 20.2358 9.74925 20.2358C9.74925 20.2358 9.66646 19.6062 10.0283 19.1584L13.0146 20.6362C13.2163 20.7179 13.7493 19.7908 13.7493 19.7908L13.8934 19.4501C13.8934 19.4501 14.3024 18.529 14.0789 18.2883L11.2584 16.9318C11.3126 16.606 11.5107 16.3557 11.5107 16.3557C11.5828 16.2521 11.6855 16.1343 11.8221 16.0019C11.8221 16.0019 13.8142 14.0816 16.7211 16.4777L17.3587 17.1011C17.6291 17.2961 18.2701 17.6043 19.603 17.5804L19.8461 17.5848L28.5524 17.4285C28.5524 17.4285 30.0439 17.2335 30.3481 18.8702L30.35 18.9509C30.1374 20.6018 28.6363 20.4856 28.6363 20.4856L19.7238 20.7977Z" fill="black"/>
</svg>
