<svg width="39" height="39" viewBox="0 0 39 39" fill="none" xmlns="http://www.w3.org/2000/svg">
<path fill-rule="evenodd" clip-rule="evenodd" d="M32.5 19.5C32.5 26.6797 26.6797 32.5 19.5 32.5C12.3203 32.5 6.5 26.6797 6.5 19.5C6.5 12.3203 12.3203 6.5 19.5 6.5C26.6797 6.5 32.5 12.3203 32.5 19.5ZM35.75 19.5C35.75 28.4746 28.4746 35.75 19.5 35.75C10.5254 35.75 3.25 28.4746 3.25 19.5C3.25 10.5254 10.5254 3.25 19.5 3.25C28.4746 3.25 35.75 10.5254 35.75 19.5ZM21.125 9.75C21.125 8.85254 20.3975 8.125 19.5 8.125C18.6025 8.125 17.875 8.85254 17.875 9.75V19.5C17.875 19.931 18.0462 20.3443 18.351 20.649L23.226 25.524C23.8606 26.1587 24.8894 26.1587 25.524 25.524C26.1587 24.8894 26.1587 23.8606 25.524 23.226L21.125 18.8269V9.75Z" fill="black"/>
</svg>
