<svg width="40" height="39" viewBox="0 0 40 39" fill="none" xmlns="http://www.w3.org/2000/svg">
<g clip-path="url(#clip0_111_447)">
<path d="M36.8 39.0002H40.0001" stroke="black" stroke-width="2" stroke-miterlimit="10" stroke-linecap="round" stroke-linejoin="round"/>
<path d="M0 3.12003V0H3.20003" stroke="black" stroke-width="2" stroke-miterlimit="10" stroke-linecap="round" stroke-linejoin="round"/>
<path d="M40.0002 0V3.12003" stroke="black" stroke-width="2" stroke-miterlimit="10" stroke-linecap="round" stroke-linejoin="round"/>
<path d="M40.0001 0H36.8" stroke="black" stroke-width="2" stroke-miterlimit="10" stroke-linecap="round" stroke-linejoin="round"/>
<path d="M40.0002 35.8802V39.0002" stroke="black" stroke-width="2" stroke-miterlimit="10" stroke-linecap="round" stroke-linejoin="round"/>
<path d="M0 39.0002V35.8802" stroke="black" stroke-width="2" stroke-miterlimit="10" stroke-linecap="round" stroke-linejoin="round"/>
<path d="M0 39.0002H3.20003" stroke="black" stroke-width="2" stroke-miterlimit="10" stroke-linecap="round" stroke-linejoin="round"/>
<path d="M27.0943 25.7129C25.5759 25.9009 20.6727 25.9763 18.7269 25.9763C16.7813 25.9763 11.8068 25.9011 10.2883 25.7129C7.81355 25.4093 5.47637 24.6058 5.16216 20.8302C5.06301 19.664 4.99678 18.667 4.95821 17.7749C5.6363 18.1779 6.36932 18.5274 7.13001 18.8201C7.16594 19.3844 7.21129 19.9944 7.26792 20.6636C7.45814 22.9264 8.3923 23.4046 10.553 23.6679C11.8484 23.8291 16.528 23.9151 18.7271 23.9151C20.9264 23.9151 25.5373 23.8291 26.8297 23.6679C28.9932 23.4046 29.9276 22.9262 30.115 20.6636C30.2817 18.6804 30.356 17.2104 30.356 15.9019C30.356 14.5932 30.2815 13.126 30.115 11.14C29.9276 8.87744 28.9932 8.40177 26.8297 8.13577C25.5373 7.97727 20.9264 7.88849 18.7271 7.88849C16.528 7.88849 11.8484 7.97709 10.553 8.13577C8.39248 8.40177 7.45814 8.87744 7.26792 11.14C7.26359 11.1885 7.25964 11.2342 7.25682 11.2824C7.02521 11.1938 6.78833 11.0944 6.54016 10.9814C6.15295 10.804 5.88973 10.5057 5.73131 10.0623C5.63479 9.79099 5.58794 9.48464 5.58794 9.16746C5.58794 9.11647 5.58926 9.06529 5.59189 9.01429C6.438 6.89128 8.3176 6.33233 10.2881 6.09054C11.8066 5.90251 16.7813 5.82712 18.7267 5.82712C20.6726 5.82712 25.5755 5.90233 27.0941 6.09054C29.5718 6.39415 31.906 7.19763 32.223 10.9733C32.3938 13.0156 32.4683 14.534 32.4683 15.9017C32.4683 17.2695 32.394 18.7879 32.223 20.8302C31.9062 24.6058 29.572 25.4093 27.0943 25.7129ZM34.5658 16.4178C34.5493 17.7103 34.4844 19.148 34.3288 20.9995C34.0516 24.3209 32.4106 25.8903 30.7404 26.7395L33.3532 33.1727H35.5965C36.189 33.1727 36.484 32.7104 36.484 32.2511V19.0649C36.4838 17.0009 35.3429 16.4715 34.5658 16.4178ZM17.7431 16.0039L13.2068 11.2099V13.6767C9.8226 13.6714 8.20904 13.6068 5.80713 12.5131C3.66431 11.5378 3.44662 8.77251 4.3742 6.972C2.56458 8.51734 1.50493 11.5108 3.6105 14.3755C5.36593 16.7617 9.40077 18.2344 13.2066 18.3258V20.798L17.7431 16.0039Z" fill="black"/>
</g>
<defs>
<clipPath id="clip0_111_447">
<rect width="40" height="39" fill="white"/>
</clipPath>
</defs>
</svg>
